<?xml version="1.0" encoding="UTF-8" standalone="no"?>
<!-- Created with Inkscape (http://www.inkscape.org/) -->

<svg
   xmlns:dc="http://purl.org/dc/elements/1.1/"
   xmlns:cc="http://creativecommons.org/ns#"
   xmlns:rdf="http://www.w3.org/1999/02/22-rdf-syntax-ns#"
   xmlns:svg="http://www.w3.org/2000/svg"
   xmlns="http://www.w3.org/2000/svg"
   xmlns:sodipodi="http://sodipodi.sourceforge.net/DTD/sodipodi-0.dtd"
   xmlns:inkscape="http://www.inkscape.org/namespaces/inkscape"
   width="20"
   height="20"
   viewBox="0 0 20 20"
   id="svg2"
   version="1.1"
   inkscape:version="0.48.3.1 r9886"
   sodipodi:docname="arrow-darkgray.svg">
  <defs
     id="defs4" />
  <sodipodi:namedview
     id="base"
     pagecolor="#ffffff"
     bordercolor="#666666"
     borderopacity="1.0"
     inkscape:pageopacity="0.0"
     inkscape:pageshadow="2"
     inkscape:zoom="15.839192"
     inkscape:cx="4.424892"
     inkscape:cy="10.413694"
     inkscape:document-units="px"
     inkscape:current-layer="layer1"
     showgrid="false"
     units="px"
     inkscape:snap-global="false"
     inkscape:window-width="959"
     inkscape:window-height="1020"
     inkscape:window-x="0"
     inkscape:window-y="27"
     inkscape:window-maximized="0" />
  <metadata
     id="metadata7">
    <rdf:RDF>
      <cc:Work
         rdf:about="">
        <dc:format>image/svg+xml</dc:format>
        <dc:type
           rdf:resource="http://purl.org/dc/dcmitype/StillImage" />
        <dc:title />
      </cc:Work>
    </rdf:RDF>
  </metadata>
  <g
     inkscape:label="Calque 1"
     inkscape:groupmode="layer"
     id="layer1"
     transform="translate(0,-1032.3622)">
    <path
       style="fill:none;stroke:#4a4a4a;stroke-width:2.51684713;stroke-linecap:round;stroke-linejoin:round;stroke-miterlimit:4;stroke-opacity:1;stroke-dasharray:none"
       d="m 14.222315,1042.0629 c -0.1516,-0.9952 -1.0129,-2.247 -2.5863,-3.7595 -0.4869,-0.468 -1.2332,-1.1171 -1.7683002,-1.5378 l -0.1844,-0.145 -0.4621,0.333 -0.4622,0.3329 0.1817,0.1421 c 0.4911,0.3842 1.1975002,0.9985 1.6738002,1.4558 1.2751,1.2243 2.0342,2.2425 2.2757,3.0528 0.076,0.2592 0.072,0.6136 -0.015,0.8842 -0.3448,1.0943 -1.6954,2.6525 -3.7316002,4.3057 l -0.3758,0.305 0.4554,0.3359 0.4552,0.3358 0.1619,-0.1282 c 1.0924002,-0.8652 2.2096002,-1.907 2.8824002,-2.6878 1.152,-1.3373 1.629,-2.3643 1.4981,-3.2249 z"
       id="path3346"
       inkscape:connector-curvature="0" />
    <g
       id="layer1-2"
       inkscape:label="Calque 1"
       transform="matrix(0,1,1,0,-1032.3622,1032.3622)"
       style="fill:none;stroke:#4a4a4a;stroke-opacity:1">
      <circle
         r="8.9919786"
         cx="10"
         cy="1042.3622"
         id="path4136"
         style="fill:none;stroke:#4a4a4a;stroke-width:2.01604199;stroke-linecap:round;stroke-linejoin:round;stroke-miterlimit:4;stroke-opacity:1;stroke-dasharray:none"
         sodipodi:cx="10"
         sodipodi:cy="1042.3622"
         sodipodi:rx="8.9919786"
         sodipodi:ry="8.9919786"
         d="m 18.991979,1042.3622 c 0,4.9661 -4.025846,8.992 -8.991979,8.992 -4.9661327,0 -8.9919786,-4.0259 -8.9919786,-8.992 0,-4.9662 4.0258459,-8.992 8.9919786,-8.992 4.966133,0 8.991979,4.0258 8.991979,8.992 z" />
    </g>
  </g>
</svg>
